<mxfile host="app.diagrams.net" modified="2023-12-13T14:50:07.711Z" agent="Mozilla/5.0 (X11; Linux x86_64; rv:109.0) Gecko/20100101 Firefox/115.0" etag="VSfH4evrb081xdQBqyza" version="22.1.8" type="github">
  <diagram name="Page-1" id="YJkLvu9QFW7qGKwEnJLY">
    <mxGraphModel dx="955" dy="624" grid="1" gridSize="10" guides="1" tooltips="1" connect="1" arrows="1" fold="1" page="1" pageScale="1" pageWidth="850" pageHeight="1100" math="0" shadow="0">
      <root>
        <mxCell id="0" />
        <mxCell id="1" parent="0" />
        <mxCell id="ukKEz9Pq4dln_3xAOOgx-12" style="edgeStyle=orthogonalEdgeStyle;rounded=0;orthogonalLoop=1;jettySize=auto;html=1;exitX=0.5;exitY=0;exitDx=0;exitDy=0;entryX=1;entryY=0.5;entryDx=0;entryDy=0;" edge="1" parent="1" source="ukKEz9Pq4dln_3xAOOgx-1" target="ukKEz9Pq4dln_3xAOOgx-5">
          <mxGeometry relative="1" as="geometry">
            <Array as="points">
              <mxPoint x="440" y="240" />
            </Array>
          </mxGeometry>
        </mxCell>
        <mxCell id="ukKEz9Pq4dln_3xAOOgx-13" style="edgeStyle=orthogonalEdgeStyle;rounded=0;orthogonalLoop=1;jettySize=auto;html=1;entryX=0;entryY=0.5;entryDx=0;entryDy=0;exitX=0.5;exitY=0;exitDx=0;exitDy=0;" edge="1" parent="1" source="ukKEz9Pq4dln_3xAOOgx-1">
          <mxGeometry relative="1" as="geometry">
            <mxPoint x="519.9999999999957" y="240" as="targetPoint" />
            <Array as="points">
              <mxPoint x="440" y="240" />
            </Array>
          </mxGeometry>
        </mxCell>
        <mxCell id="ukKEz9Pq4dln_3xAOOgx-14" style="edgeStyle=orthogonalEdgeStyle;rounded=0;orthogonalLoop=1;jettySize=auto;html=1;entryX=0;entryY=0.5;entryDx=0;entryDy=0;exitX=0.5;exitY=0;exitDx=0;exitDy=0;" edge="1" parent="1" source="ukKEz9Pq4dln_3xAOOgx-1" target="ukKEz9Pq4dln_3xAOOgx-7">
          <mxGeometry relative="1" as="geometry">
            <Array as="points">
              <mxPoint x="440" y="140" />
            </Array>
          </mxGeometry>
        </mxCell>
        <mxCell id="ukKEz9Pq4dln_3xAOOgx-19" style="edgeStyle=orthogonalEdgeStyle;rounded=0;orthogonalLoop=1;jettySize=auto;html=1;entryX=1;entryY=0.5;entryDx=0;entryDy=0;exitX=0.5;exitY=0;exitDx=0;exitDy=0;" edge="1" parent="1" source="ukKEz9Pq4dln_3xAOOgx-1" target="ukKEz9Pq4dln_3xAOOgx-18">
          <mxGeometry relative="1" as="geometry" />
        </mxCell>
        <mxCell id="ukKEz9Pq4dln_3xAOOgx-1" value="&lt;div&gt;Персонаж&lt;/div&gt;" style="rounded=0;whiteSpace=wrap;html=1;" vertex="1" parent="1">
          <mxGeometry x="380" y="320" width="120" height="60" as="geometry" />
        </mxCell>
        <mxCell id="ukKEz9Pq4dln_3xAOOgx-3" value="&lt;div&gt;Камера&lt;/div&gt;" style="ellipse;whiteSpace=wrap;html=1;" vertex="1" parent="1">
          <mxGeometry x="540" y="550" width="120" height="80" as="geometry" />
        </mxCell>
        <mxCell id="ukKEz9Pq4dln_3xAOOgx-5" value="Здоровье" style="ellipse;whiteSpace=wrap;html=1;" vertex="1" parent="1">
          <mxGeometry x="240" y="200" width="120" height="80" as="geometry" />
        </mxCell>
        <mxCell id="ukKEz9Pq4dln_3xAOOgx-9" style="edgeStyle=orthogonalEdgeStyle;rounded=0;orthogonalLoop=1;jettySize=auto;html=1;" edge="1" parent="1" source="ukKEz9Pq4dln_3xAOOgx-6" target="ukKEz9Pq4dln_3xAOOgx-8">
          <mxGeometry relative="1" as="geometry" />
        </mxCell>
        <mxCell id="ukKEz9Pq4dln_3xAOOgx-10" style="edgeStyle=orthogonalEdgeStyle;rounded=0;orthogonalLoop=1;jettySize=auto;html=1;" edge="1" parent="1" source="ukKEz9Pq4dln_3xAOOgx-6" target="ukKEz9Pq4dln_3xAOOgx-3">
          <mxGeometry relative="1" as="geometry" />
        </mxCell>
        <mxCell id="ukKEz9Pq4dln_3xAOOgx-11" style="edgeStyle=orthogonalEdgeStyle;rounded=0;orthogonalLoop=1;jettySize=auto;html=1;entryX=0.5;entryY=1;entryDx=0;entryDy=0;" edge="1" parent="1" source="ukKEz9Pq4dln_3xAOOgx-6" target="ukKEz9Pq4dln_3xAOOgx-1">
          <mxGeometry relative="1" as="geometry" />
        </mxCell>
        <mxCell id="ukKEz9Pq4dln_3xAOOgx-21" style="edgeStyle=orthogonalEdgeStyle;rounded=0;orthogonalLoop=1;jettySize=auto;html=1;entryX=0.5;entryY=0;entryDx=0;entryDy=0;" edge="1" parent="1" source="ukKEz9Pq4dln_3xAOOgx-6" target="ukKEz9Pq4dln_3xAOOgx-20">
          <mxGeometry relative="1" as="geometry" />
        </mxCell>
        <mxCell id="ukKEz9Pq4dln_3xAOOgx-6" value="Пользователь" style="rounded=0;whiteSpace=wrap;html=1;" vertex="1" parent="1">
          <mxGeometry x="380" y="440" width="120" height="60" as="geometry" />
        </mxCell>
        <mxCell id="ukKEz9Pq4dln_3xAOOgx-7" value="Заклинания" style="ellipse;whiteSpace=wrap;html=1;" vertex="1" parent="1">
          <mxGeometry x="520" y="100" width="120" height="80" as="geometry" />
        </mxCell>
        <mxCell id="ukKEz9Pq4dln_3xAOOgx-8" value="Выбор карты" style="ellipse;whiteSpace=wrap;html=1;" vertex="1" parent="1">
          <mxGeometry x="220" y="550" width="120" height="80" as="geometry" />
        </mxCell>
        <mxCell id="ukKEz9Pq4dln_3xAOOgx-17" style="edgeStyle=orthogonalEdgeStyle;rounded=0;orthogonalLoop=1;jettySize=auto;html=1;entryX=0;entryY=0.5;entryDx=0;entryDy=0;" edge="1" parent="1" source="ukKEz9Pq4dln_3xAOOgx-15" target="ukKEz9Pq4dln_3xAOOgx-16">
          <mxGeometry relative="1" as="geometry" />
        </mxCell>
        <mxCell id="ukKEz9Pq4dln_3xAOOgx-15" value="Инвентарь" style="rounded=0;whiteSpace=wrap;html=1;" vertex="1" parent="1">
          <mxGeometry x="520" y="210" width="120" height="60" as="geometry" />
        </mxCell>
        <mxCell id="ukKEz9Pq4dln_3xAOOgx-16" value="Предмет" style="ellipse;whiteSpace=wrap;html=1;" vertex="1" parent="1">
          <mxGeometry x="730" y="200" width="120" height="80" as="geometry" />
        </mxCell>
        <mxCell id="ukKEz9Pq4dln_3xAOOgx-18" value="Характеристики" style="ellipse;whiteSpace=wrap;html=1;" vertex="1" parent="1">
          <mxGeometry x="240" y="100" width="120" height="80" as="geometry" />
        </mxCell>
        <mxCell id="ukKEz9Pq4dln_3xAOOgx-20" value="Миссии" style="ellipse;whiteSpace=wrap;html=1;" vertex="1" parent="1">
          <mxGeometry x="380" y="550" width="120" height="80" as="geometry" />
        </mxCell>
      </root>
    </mxGraphModel>
  </diagram>
</mxfile>
